<svg width="451" height="451" viewBox="0 0 451 451" fill="none" xmlns="http://www.w3.org/2000/svg">
<path d="M309.798 155.999L182.514 108.785C178.638 107.376 174.41 109.314 173.001 113.19L87.029 344.591C85.6196 348.467 87.5575 352.695 91.4333 354.105L218.717 401.319C222.593 402.728 226.821 400.79 228.231 396.914L314.203 165.425C315.612 161.637 313.674 157.409 309.798 155.999Z" fill="#593F8F"/>
<path opacity="0.09" d="M233.516 274.563C230.345 274.563 227.086 274.475 223.738 274.299C174.322 271.568 133.979 249.547 115.833 215.457C86.8529 161.02 115.305 85.1782 158.907 61.3069C180.929 49.1511 200.043 49.5034 212.199 51.9698C232.987 56.1099 248.314 65.7112 255.361 78.9241C262.937 93.106 258.885 106.407 254.569 120.413C250.693 133.009 246.729 145.958 251.486 159.963C255.714 172.471 266.724 176.347 278.44 180.487C290.331 184.715 302.663 189.032 309.27 202.685C316.229 217.131 315.348 236.862 307.332 248.754C296.409 264.609 267.517 274.563 233.516 274.563ZM198.458 51.6175C187.623 51.6175 174.146 54.0839 159.436 62.1878C116.274 85.8829 88.0861 161.108 116.802 215.017C134.772 248.842 174.851 270.599 223.915 273.33C261.615 275.444 294.824 265.314 306.539 248.225C314.379 236.686 315.26 217.307 308.389 203.213C301.959 189.912 289.891 185.684 278.176 181.544C266.284 177.316 255.009 173.352 250.605 160.404C245.76 146.046 249.812 132.921 253.688 120.148C257.916 106.319 261.968 93.1941 254.569 79.3646C247.698 66.4159 232.547 56.9907 212.111 52.9388C208.147 52.146 203.567 51.6175 198.458 51.6175Z" fill="#AAAAD5"/>
<path opacity="0.2" d="M278.968 144.549L264.875 153.974L141.819 236.599L122.352 249.723L149.13 177.405L168.685 164.28L212.816 134.595L226.91 125.17L278.968 144.549Z" fill="#EEEDF3"/>
<path opacity="0.2" d="M306.98 154.943L292.886 164.368L127.372 275.533L107.817 288.569L117.331 263.113L136.798 250.076V249.988L274.564 157.586L288.658 148.072L306.98 154.943Z" fill="#EEEDF3"/>
<path d="M309.798 155.999L306.979 154.942L288.658 148.16L278.968 144.548L226.909 125.257L182.514 108.785C178.726 107.376 174.41 109.314 173.001 113.19L149.129 177.492L122.263 249.811L117.242 263.288L107.817 288.745L87.0289 344.768C86.7646 345.472 86.6765 346.177 86.5884 346.882C86.3242 350.053 88.2621 353.136 91.4332 354.281L115.04 363.089L132.834 369.696L179.871 387.137L197.048 393.479L218.717 401.495C222.505 402.904 226.821 400.966 228.231 397.179L312.617 169.917L314.202 165.689C315.612 161.637 313.674 157.409 309.798 155.999ZM297.73 170.357L295.969 175.202L223.298 371.017C222.505 373.043 220.215 374.188 218.101 373.396L202.157 367.494L182.866 360.359L143.052 345.56L124.818 338.778L110.284 333.405C108.698 332.788 107.729 331.379 107.729 329.793C107.729 329.264 107.729 328.736 107.993 328.207L127.548 275.62L136.974 250.163L141.994 236.686L168.861 164.368L182.514 127.636C183.307 125.61 185.597 124.465 187.623 125.257L212.992 134.683L265.051 153.973L274.74 157.585L293.062 164.368L295.44 165.248C297.466 166.041 298.523 168.331 297.73 170.357Z" fill="#EEEDF3"/>
<path d="M151.508 368.199C147.896 366.878 146.046 362.826 147.368 359.214C148.689 355.603 152.741 353.753 156.352 355.074C159.964 356.395 161.814 360.447 160.492 364.059C159.083 367.758 155.031 369.52 151.508 368.199Z" fill="#C9C7D9"/>
<path d="M337.457 387.578L334.638 370.401L342.39 368.022L343.623 386.344L337.457 387.578Z" fill="#D7DDE9"/>
<path d="M343.887 384.494C344.416 384.582 344.856 384.759 345.297 385.111C348.027 387.401 356.396 391.453 360.624 392.07C365.204 392.774 365.468 394.977 358.95 394.977C352.52 394.977 347.763 394.36 344.944 394.448C342.038 394.536 342.83 394.977 335.783 394.977C330.322 394.977 332.084 388.018 334.022 384.847C334.638 383.878 335.431 383.349 336.576 383.437L343.887 384.494Z" fill="#3F3F3F"/>
<path d="M312.528 371.546L323.275 357.893L330.234 362.033L317.637 375.246L312.528 371.546Z" fill="#D7DDE9"/>
<path d="M319.223 374.188C319.487 374.629 319.751 375.069 319.751 375.598C319.928 379.121 322.658 388.282 325.917 391.189C329.177 394.184 327.063 394.888 321.777 392.422C315.964 389.691 314.643 383.79 312.617 381.764C310.591 379.738 310.767 380.53 306.01 375.333C302.311 371.37 308.565 367.934 312.264 367.141C313.409 366.877 314.29 367.141 314.995 368.11L319.223 374.188Z" fill="#3F3F3F"/>
<path d="M307.684 81.2148C307.684 81.2148 305.57 95.3086 309.622 101.827C313.674 108.345 314.29 109.314 314.29 109.314" fill="#ED8C61"/>
<path d="M318.078 115.569C316.933 116.273 315.612 116.626 314.379 116.626C311.912 116.626 309.446 115.392 308.125 113.014C308.037 112.926 307.332 111.693 303.544 105.703C300.902 101.475 300.021 95.7492 299.933 90.7283C299.757 85.7955 300.285 81.5674 300.549 80.158C301.166 76.1941 304.866 73.3754 308.917 73.992C312.881 74.6086 315.7 78.3082 315.083 82.3601C314.731 84.4742 314.643 86.9406 314.643 89.2308C314.643 91.6092 314.819 93.8994 315.172 95.573C315.348 96.542 315.612 97.4228 315.964 97.9513C320.104 104.558 320.721 105.615 320.721 105.615C322.747 109.05 321.602 113.543 318.078 115.569Z" fill="#E8E8E8"/>
<path d="M291.036 196.255C292.533 175.203 285.486 122.968 281.875 102.179C281.346 99.0084 283.725 96.1016 286.984 96.1016H330.234C332.524 96.1016 334.638 97.6871 335.255 99.8893C340.188 118.74 343.359 196.167 343.359 196.167H291.036V196.255Z" fill="#3F3F3F"/>
<path d="M362.473 152.477C361.769 148.513 356.924 138.383 351.551 127.813C345.825 116.626 339.395 104.822 336.4 99.5371C334.726 96.5422 330.939 95.4851 327.944 97.0707C324.949 98.7443 323.892 102.532 325.477 105.527C330.058 113.807 334.726 122.528 338.866 130.367C343.535 139.352 348.027 144.813 349.877 149.218C346.53 152.124 338.162 152.389 331.555 151.948C329.705 151.772 322.658 151.244 317.99 155.56C316.14 157.233 314.026 160.316 314.202 165.161C314.378 168.508 314.819 169.83 317.814 171.327C319.047 171.944 320.632 172.032 321.954 171.944C325.389 171.503 325.653 169.654 325.653 165.69C325.653 162.871 327.151 160.052 327.151 160.052C327.151 160.052 337.193 162.519 345.561 163.576C353.929 164.633 357.364 162.959 360.447 159.524C362.209 157.498 362.914 154.943 362.473 152.477Z" fill="#E8E8E8"/>
<path d="M293.326 230.256C293.326 230.256 286.984 218.629 291.036 196.255H343.271C343.271 196.255 343.975 213.255 342.83 230.256H293.326Z" fill="#996CF4"/>
<path d="M351.463 127.813L345.385 129.046L338.866 130.367C334.815 122.527 330.058 113.719 325.477 105.527C323.804 102.532 324.949 98.7443 327.944 97.0707C330.939 95.397 334.726 96.5421 336.4 99.5371C339.307 104.822 345.737 116.626 351.463 127.813Z" fill="black" fill-opacity="0.26"/>
<path d="M292.709 101.034C291.917 97.6871 288.481 95.6612 285.222 96.542C270.248 100.242 259.853 103.589 252.63 106.672C235.982 113.719 236.158 118.916 236.158 121.558C236.246 124.553 236.863 130.455 272.714 143.492C272.714 144.549 271.569 148.601 270.864 149.922C269.19 152.917 270.952 155.824 272.714 158.731C273.331 159.7 274.74 160.933 276.414 160.933C278.616 160.933 281.346 158.114 281.699 155.824C283.02 147.456 282.844 142.523 282.403 141.554C282.403 141.466 282.315 141.378 282.315 141.29C282.139 141.025 282.051 140.761 281.875 140.497C281.787 140.321 281.611 140.233 281.523 140.056C281.346 139.88 281.258 139.704 281.082 139.616C280.818 139.352 280.554 139.176 280.289 138.999C280.201 138.999 280.201 138.911 280.113 138.911C279.673 138.647 279.232 138.383 278.792 138.207C266.636 133.186 255.273 125.082 250.252 121.558C252.014 120.589 254.48 119.356 257.563 118.211C265.227 115.128 276.502 111.517 288.041 108.698C291.476 107.729 293.502 104.382 292.709 101.034Z" fill="#E8E8E8"/>
<path d="M352.431 125.082L344.063 126.667L337.545 127.901L331.996 128.958C324.861 114.952 323.187 111.781 322.923 107.024C322.658 101.651 324.068 98.9204 327.591 96.9825C331.115 95.0446 335.519 96.2778 337.457 99.8012C337.633 100.065 345.208 110.9 352.431 125.082Z" fill="#3F3F3F"/>
<path d="M375.158 299.316C374.365 304.425 371.635 309.974 367.759 316.757C361.24 328.032 351.287 340.628 342.302 351.11C336.048 358.421 330.322 364.764 326.711 369.08C325.125 370.93 323.892 372.427 323.187 373.396L315.788 363.883C318.519 360.007 321.073 354.81 324.244 349.965C324.332 349.877 324.421 349.701 324.509 349.613C330.498 340.54 336.929 330.322 342.038 320.985C342.214 320.633 342.39 320.368 342.566 320.016C348.028 310.15 352.08 301.43 352.872 296.321C354.282 287.248 340.628 258.884 327.151 233.868C325.654 230.961 324.068 228.142 322.571 225.412C322.042 224.443 321.778 223.474 321.69 222.417C321.338 217.836 324.685 212.551 328.825 210.261C333.846 207.442 340.364 206.033 343.183 211.054C348.908 221.448 378.593 277.03 375.158 299.316Z" fill="#996CF4"/>
<path d="M342.302 351.11C336.048 358.421 330.322 364.763 326.71 369.079C326.094 363.971 325.477 358.421 324.861 352.784C324.773 351.727 324.596 350.581 324.508 349.524C330.498 340.452 336.928 330.234 342.037 320.896C342.39 330.146 342.39 340.98 342.302 351.11Z" fill="black" fill-opacity="0.15"/>
<path d="M340.981 302.134C338.426 281.258 320.897 225.147 318.166 218.981C315.876 213.696 303.192 212.551 297.906 214.929C292.621 217.22 290.243 223.386 292.533 228.671C299.58 244.702 319.576 287.6 321.602 302.751C322.747 311.824 324.332 330.058 327.151 345.649C329.177 356.483 331.203 367.054 332.7 374.717C334.022 381.412 334.022 380.179 334.11 380.795L346.618 378.857C346.618 378.857 343.975 326.798 340.981 302.134Z" fill="#996CF4"/>
<path d="M288.129 108.522C276.59 111.341 265.315 114.952 257.651 118.035L252.542 106.584C259.766 103.589 270.16 100.154 285.134 96.4541C288.482 95.6614 291.829 97.6873 292.622 100.947C293.502 104.382 291.476 107.729 288.129 108.522Z" fill="black" fill-opacity="0.26"/>
<path d="M285.31 96.2778C289.274 95.6612 292.181 97.5991 293.238 101.475C294.295 105.351 291.653 108.346 288.129 110.372C283.901 112.838 282.404 113.366 264.522 119.532L254.568 105.791C277.471 96.8944 278.616 97.2467 285.31 96.2778Z" fill="#3F3F3F"/>
<path d="M315.084 95.573C314.731 95.573 314.379 95.573 314.115 95.573C308.741 95.573 303.808 93.8113 299.933 90.7283C299.757 85.7955 300.285 81.5674 300.549 80.158C301.166 76.1941 304.866 73.3754 308.917 73.992C312.881 74.6086 315.7 78.3082 315.084 82.3601C314.731 84.4742 314.643 86.9406 314.643 89.2308C314.467 91.5211 314.643 93.8113 315.084 95.573Z" fill="black" fill-opacity="0.26"/>
<path d="M335.783 69.4995C332.877 82.9766 325.389 92.8423 312.441 92.8423C299.58 92.8423 291.476 83.0647 289.098 69.4995C286.984 56.8151 299.58 44.395 312.441 44.395C325.477 44.3069 338.514 56.9032 335.783 69.4995Z" fill="#E8E8E8"/>
<path d="M337.545 380.883L337.457 380.531C333.934 358.686 328.561 325.741 325.918 304.953C323.98 289.802 305.218 244.879 298.171 228.847C298.083 228.759 298.083 228.583 298.083 228.495C298.083 228.406 298.083 228.406 297.995 228.318C296.85 225.235 293.414 213.784 296.674 195.727L297.731 195.903C294.471 213.696 297.907 224.883 298.964 227.966C298.964 228.054 299.052 228.142 299.052 228.23C299.052 228.318 299.052 228.406 299.14 228.495C306.187 244.526 324.949 289.626 326.887 304.865C329.618 325.565 334.903 358.597 338.426 380.443L338.514 380.795L337.545 380.883Z" fill="white" fill-opacity="0.13"/>
<path d="M320.809 96.1895C320.809 99.3605 319.576 104.646 311.295 104.646C305.306 104.646 297.73 102.091 294.912 97.2465L294.295 96.1895H320.809Z" fill="#26353A"/>
<path d="M296.761 96.1895C298.963 100.065 305.57 102.532 311.295 102.532C317.021 102.532 318.695 99.7129 318.695 96.1895H296.761Z" fill="#E8E8E8"/>
<path d="M328.12 161.285C328.12 161.197 328.472 157.673 324.772 152.564L328.208 150.538C332.524 156.968 332.084 161.549 332.084 161.813L328.12 161.285Z" fill="#82AACE"/>
<path d="M325.477 150.626C327.415 149.745 329.969 150.186 331.291 151.595C332.524 153.005 331.995 154.943 329.969 155.823C328.032 156.704 325.477 156.264 324.156 154.854C322.923 153.357 323.451 151.507 325.477 150.626Z" fill="#4E7DB0"/>
<path d="M335.255 52.2346C328.208 40.8715 310.855 39.9906 307.508 40.1668C305.746 40.2549 301.87 41.3119 300.197 43.9545C300.109 42.1047 300.197 40.4311 300.197 40.4311C298.699 42.2809 298.435 43.8664 298.699 45.0996C297.642 43.6902 296.938 42.1928 296.938 42.1928C296.673 44.1307 297.202 45.2758 297.995 45.8924C293.238 47.0375 287.16 53.732 289.274 67.4734C290.155 73.4633 303.72 68.8828 307.508 62.893C310.062 67.033 315.171 67.9139 315.171 67.9139C313.41 66.1522 311.824 63.5096 310.591 60.867C317.814 65.2713 327.415 70.0279 328.56 72.9348C328.56 72.9348 330.675 68.2662 329.089 65.2713C329.089 65.2713 334.815 66.6807 335.519 72.4062C335.431 72.2301 342.742 64.3904 335.255 52.2346Z" fill="#424344"/>
<path d="M318.387 195.698L317.343 195.866L323.047 231.171L324.091 231.003L318.387 195.698Z" fill="white" fill-opacity="0.13"/>
<path d="M322.482 224.443L322.306 223.386C322.306 223.386 324.508 223.033 325.653 221.36C326.358 220.391 326.534 219.158 326.358 217.748L322.747 195.374L323.804 195.198L327.415 217.572C327.679 219.334 327.415 220.831 326.534 221.976C325.125 224.09 322.57 224.443 322.482 224.443Z" fill="white" fill-opacity="0.13"/>
<path d="M288.393 68.0905C287.336 70.3808 287.512 72.8472 288.481 74.9612C289.626 77.4276 293.238 77.2515 294.295 74.785L297.29 68.0905C298.435 65.6241 296.145 62.8934 293.502 63.5981C291.3 64.3028 289.362 65.8884 288.393 68.0905Z" fill="#E8E8E8"/>
<path d="M172.218 245.096L237.976 204.581C239.449 203.678 241.335 203.765 242.714 204.831C248.961 209.642 254.543 214.52 258.267 218.62C258.267 218.62 261.475 221.905 262.863 223.988C265.105 226.831 266.184 230.547 266.184 234.158C266.184 238.21 265.002 242.042 262.647 245.105C262.113 245.653 260.077 248.063 258.154 250.032C246.935 262.285 217.648 282.528 202.245 288.664C200.003 289.653 194.018 291.718 190.913 291.833C187.921 291.833 185.032 291.18 182.255 289.749C178.841 287.781 176.167 284.727 174.666 281.107C173.7 278.591 172.208 271.043 172.208 270.822C171.242 265.435 170.52 257.868 170.163 249.033C170.098 247.448 170.895 245.912 172.218 245.096Z" fill="#FCBDEB"/>
<path opacity="0.4" d="M176.615 223.274C173.716 225.069 170.067 222.774 170.208 219.327C170.555 211.241 171.155 204.116 171.887 198.815C172 198.7 173.491 189.299 175.208 186.12C178.2 180.214 184.073 176.604 190.386 176.604H190.911C194.982 176.709 203.641 180.32 203.641 180.541C208.003 182.356 213.697 185.429 219.822 189.126C222.58 190.797 222.646 194.897 219.888 196.597L176.615 223.274Z" fill="#F089D3"/>
</svg>
